STARTFONT 2.1
FONT -Bitstream-Terminal-Bold-R-Wide--18-140-100-100-C-140-DEC-DECtech
SIZE 14 100 100
FONTBOUNDINGBOX 14 20 0 -5

STARTPROPERTIES 24
FOUNDRY "Bitstream"
FAMILY_NAME "Terminal"
WEIGHT_NAME "Bold"
SLANT "R"
SETWIDTH_NAME "Wide"
ADD_STYLE_NAME ""
PIXEL_SIZE 18
POINT_SIZE 140
RESOLUTION_X 100
RESOLUTION_Y 100
SPACING "C"
AVERAGE_WIDTH 140
CHARSET_REGISTRY "DEC"
CHARSET_ENCODING "DECtech"
CAP_HEIGHT 11
COPYRIGHT "Copyright (c) 1991 Digital Equipment Corporation. All Rights Reserved."
_DEC_PRODUCTINFO "DECterm Fonts V2.2, 11-Nov-1991"
FULL_NAME "Terminal Bold Wide"
WEIGHT 10
X_HEIGHT -2
QUAD_WIDTH 14
DEFAULT_CHAR 159
FONT_DESCENT 5
FONT_ASCENT 15
ENDPROPERTIES

CHARS 182

STARTCHAR space
ENCODING 32
SWIDTH 720 0
DWIDTH 14 0
BBX 14 20 0 -5
BITMAP
0000
0000
0000
0000
0000
0000
0000
0000
0000
0000
0000
0000
0000
0000
0000
0000
0000
0000
0000
0000
ENDCHAR

STARTCHAR exclam
ENCODING 33
SWIDTH 720 0
DWIDTH 14 0
BBX 14 20 0 -5
BITMAP
0000
0000
0000
0000
0780
0780
0780
0780
0780
0780
0780
0000
0780
0FC0
0780
0000
0000
0000
0000
0000
ENDCHAR

STARTCHAR quotedbl
ENCODING 34
SWIDTH 720 0
DWIDTH 14 0
BBX 14 20 0 -5
BITMAP
0000
0000
0000
0000
1CE0
1CE0
1CE0
1CE0
1CE0
0000
0000
0000
0000
0000
0000
0000
0000
0000
0000
0000
ENDCHAR

STARTCHAR numbersign
ENCODING 35
SWIDTH 720 0
DWIDTH 14 0
BBX 14 20 0 -5
BITMAP
0000
0000
0000
0000
1CE0
1CE0
1CE0
7FF8
7FF8
1CE0
1CE0
7FF8
7FF8
1CE0
1CE0
1CE0
1CE0
0000
0000
0000
ENDCHAR

STARTCHAR dollar
ENCODING 36
SWIDTH 720 0
DWIDTH 14 0
BBX 14 20 0 -5
BITMAP
0000
0000
0000
0380
0380
1FD8
3FF8
7838
7800
3FC0
1FF0
0078
7078
7FF0
6FE0
0700
0700
0700
0000
0000
ENDCHAR

STARTCHAR percent
ENCODING 37
SWIDTH 720 0
DWIDTH 14 0
BBX 14 20 0 -5
BITMAP
0000
0000
0000
0000
3F00
F3C0
F3C0
3F1C
00FC
0FC0
FC00
E3F0
0F3C
0F3C
03F0
0000
0000
0000
0000
0000
ENDCHAR

STARTCHAR ampersand
ENCODING 38
SWIDTH 720 0
DWIDTH 14 0
BBX 14 20 0 -5
BITMAP
0000
0000
0000
0000
0760
1FE0
1E60
1E00
0700
1F00
7F98
79F8
79E0
7FF8
1E78
0000
0000
0000
0000
0000
ENDCHAR

STARTCHAR quoteright
ENCODING 39
SWIDTH 720 0
DWIDTH 14 0
BBX 14 20 0 -5
BITMAP
0000
0000
03C0
0780
0700
0E00
1C00
0000
0000
0000
0000
0000
0000
0000
0000
0000
0000
0000
0000
0000
ENDCHAR

STARTCHAR parenleft
ENCODING 40
SWIDTH 720 0
DWIDTH 14 0
BBX 14 20 0 -5
BITMAP
0000
0000
00E0
03C0
0780
0F00
0F00
1E00
1E00
1E00
1E00
1E00
1E00
0F00
0F00
0780
03C0
00E0
0000
0000
ENDCHAR

STARTCHAR parenright
ENCODING 41
SWIDTH 720 0
DWIDTH 14 0
BBX 14 20 0 -5
BITMAP
0000
0000
1C00
0F00
0780
03C0
03C0
01E0
01E0
01E0
01E0
01E0
01E0
03C0
03C0
0780
0F00
1C00
0000
0000
ENDCHAR

STARTCHAR asterisk
ENCODING 42
SWIDTH 720 0
DWIDTH 14 0
BBX 14 20 0 -5
BITMAP
0000
0000
0000
0000
0000
0000
0300
0300
3B70
3FF0
0780
1CE0
3870
0000
0000
0000
0000
0000
0000
0000
ENDCHAR

STARTCHAR plus
ENCODING 43
SWIDTH 720 0
DWIDTH 14 0
BBX 14 20 0 -5
BITMAP
0000
0000
0000
0000
0000
0000
0780
0780
0780
7FF8
7FF8
0780
0780
0780
0000
0000
0000
0000
0000
0000
ENDCHAR

STARTCHAR comma
ENCODING 44
SWIDTH 720 0
DWIDTH 14 0
BBX 14 20 0 -5
BITMAP
0000
0000
0000
0000
0000
0000
0000
0000
0000
0000
0000
0000
03C0
03C0
0780
0F00
0E00
0000
0000
0000
ENDCHAR

STARTCHAR minus
ENCODING 45
SWIDTH 720 0
DWIDTH 14 0
BBX 14 20 0 -5
BITMAP
0000
0000
0000
0000
0000
0000
0000
0000
0000
3FF0
3FF0
0000
0000
0000
0000
0000
0000
0000
0000
0000
ENDCHAR

STARTCHAR period
ENCODING 46
SWIDTH 720 0
DWIDTH 14 0
BBX 14 20 0 -5
BITMAP
0000
0000
0000
0000
0000
0000
0000
0000
0000
0000
0000
0000
0780
0FC0
0780
0000
0000
0000
0000
0000
ENDCHAR

STARTCHAR slash
ENCODING 47
SWIDTH 720 0
DWIDTH 14 0
BBX 14 20 0 -5
BITMAP
0000
0000
0000
0078
00F0
00F0
01E0
03E0
03C0
0780
0780
0F00
0F00
1E00
3C00
0000
0000
0000
0000
0000
ENDCHAR

STARTCHAR zero
ENCODING 48
SWIDTH 720 0
DWIDTH 14 0
BBX 14 20 0 -5
BITMAP
0000
0000
0000
0000
0780
1FE0
3CF0
7878
7878
7878
7878
7878
3CF0
1FE0
0780
0000
0000
0000
0000
0000
ENDCHAR

STARTCHAR one
ENCODING 49
SWIDTH 720 0
DWIDTH 14 0
BBX 14 20 0 -5
BITMAP
0000
0000
0000
0000
0780
0F80
3F80
3780
0780
0780
0780
0780
0780
3FF0
3FF0
0000
0000
0000
0000
0000
ENDCHAR

STARTCHAR two
ENCODING 50
SWIDTH 720 0
DWIDTH 14 0
BBX 14 20 0 -5
BITMAP
0000
0000
0000
0000
1FC0
7FF0
70F0
60F0
01E0
03C0
0F00
1C00
3830
7FF0
7FF0
0000
0000
0000
0000
0000
ENDCHAR

STARTCHAR three
ENCODING 51
SWIDTH 720 0
DWIDTH 14 0
BBX 14 20 0 -5
BITMAP
0000
0000
0000
0000
1FC0
7FF0
70F0
00F0
0FC0
0FF0
00F0
00F0
70F0
7FF0
1FC0
0000
0000
0000
0000
0000
ENDCHAR

STARTCHAR four
ENCODING 52
SWIDTH 720 0
DWIDTH 14 0
BBX 14 20 0 -5
BITMAP
0000
0000
0000
0000
03C0
07C0
0FC0
1BC0
33C0
73C0
7FF0
7FF0
03C0
03C0
03C0
0000
0000
0000
0000
0000
ENDCHAR

STARTCHAR five
ENCODING 53
SWIDTH 720 0
DWIDTH 14 0
BBX 14 20 0 -5
BITMAP
0000
0000
0000
0000
7FF0
7FF0
7800
7800
7FC0
7FF0
00F0
00F0
70F0
7FE0
1FC0
0000
0000
0000
0000
0000
ENDCHAR

STARTCHAR six
ENCODING 54
SWIDTH 720 0
DWIDTH 14 0
BBX 14 20 0 -5
BITMAP
0000
0000
0000
0000
03E0
0FE0
1E00
3C00
3FC0
7FE0
78F0
78F0
78F0
3FE0
1FC0
0000
0000
0000
0000
0000
ENDCHAR

STARTCHAR seven
ENCODING 55
SWIDTH 720 0
DWIDTH 14 0
BBX 14 20 0 -5
BITMAP
0000
0000
0000
0000
7FF0
7FF0
60F0
00E0
01E0
01C0
03C0
0380
0780
0700
0F00
0000
0000
0000
0000
0000
ENDCHAR

STARTCHAR eight
ENCODING 56
SWIDTH 720 0
DWIDTH 14 0
BBX 14 20 0 -5
BITMAP
0000
0000
0000
0000
1FC0
7FF0
78F0
78F0
1FC0
7FF0
78F0
78F0
78F0
7FF0
1FC0
0000
0000
0000
0000
0000
ENDCHAR

STARTCHAR nine
ENCODING 57
SWIDTH 720 0
DWIDTH 14 0
BBX 14 20 0 -5
BITMAP
0000
0000
0000
0000
1FC0
3FE0
78F0
78F0
78F0
3FF0
1FF0
00E0
01E0
3FC0
3F00
0000
0000
0000
0000
0000
ENDCHAR

STARTCHAR colon
ENCODING 58
SWIDTH 720 0
DWIDTH 14 0
BBX 14 20 0 -5
BITMAP
0000
0000
0000
0000
0000
0000
0000
0780
0FC0
0780
0000
0000
0780
0FC0
0780
0000
0000
0000
0000
0000
ENDCHAR

STARTCHAR semicolon
ENCODING 59
SWIDTH 720 0
DWIDTH 14 0
BBX 14 20 0 -5
BITMAP
0000
0000
0000
0000
0000
0000
0000
0780
0FC0
0780
0000
0000
0780
0780
0F00
1E00
1C00
0000
0000
0000
ENDCHAR

STARTCHAR less
ENCODING 60
SWIDTH 720 0
DWIDTH 14 0
BBX 14 20 0 -5
BITMAP
0000
0000
0000
0000
0018
0078
01F8
07E0
1F80
7E00
1F80
07E0
01F8
0078
0018
0000
0000
0000
0000
0000
ENDCHAR

STARTCHAR equal
ENCODING 61
SWIDTH 720 0
DWIDTH 14 0
BBX 14 20 0 -5
BITMAP
0000
0000
0000
0000
0000
0000
0000
7FF8
7FF8
0000
0000
7FF8
7FF8
0000
0000
0000
0000
0000
0000
0000
ENDCHAR

STARTCHAR greater
ENCODING 62
SWIDTH 720 0
DWIDTH 14 0
BBX 14 20 0 -5
BITMAP
0000
0000
0000
0000
6000
7800
7E00
1F80
07E0
01F8
07E0
1F80
7E00
7800
6000
0000
0000
0000
0000
0000
ENDCHAR

STARTCHAR question
ENCODING 63
SWIDTH 720 0
DWIDTH 14 0
BBX 14 20 0 -5
BITMAP
0000
0000
0000
0000
1FF0
7FF8
7078
01F8
03E0
0780
0780
0000
0780
0FC0
0780
0000
0000
0000
0000
0000
ENDCHAR

STARTCHAR at
ENCODING 64
SWIDTH 720 0
DWIDTH 14 0
BBX 14 20 0 -5
BITMAP
0000
0000
0000
1FE0
3FF0
7870
7070
73F0
77F0
7770
7770
77F8
73D8
7000
7818
3FF8
1FE0
0000
0000
0000
ENDCHAR

STARTCHAR A
ENCODING 65
SWIDTH 720 0
DWIDTH 14 0
BBX 14 20 0 -5
BITMAP
0000
0000
0000
0000
0780
0FC0
1FE0
3CF0
7878
7878
7FF8
7FF8
7878
7878
7878
0000
0000
0000
0000
0000
ENDCHAR

STARTCHAR B
ENCODING 66
SWIDTH 720 0
DWIDTH 14 0
BBX 14 20 0 -5
BITMAP
0000
0000
0000
0000
7FE0
7FF0
7878
7878
7FF0
7FE0
7878
7878
7878
7FF8
7FE0
0000
0000
0000
0000
0000
ENDCHAR

STARTCHAR C
ENCODING 67
SWIDTH 720 0
DWIDTH 14 0
BBX 14 20 0 -5
BITMAP
0000
0000
0000
0000
0FD8
3FF8
3C38
7838
7800
7800
7800
7800
3C38
3FF8
0FE0
0000
0000
0000
0000
0000
ENDCHAR

STARTCHAR D
ENCODING 68
SWIDTH 720 0
DWIDTH 14 0
BBX 14 20 0 -5
BITMAP
0000
0000
0000
0000
7FC0
7FF0
78F0
7878
7878
7878
7878
7878
78F0
7FF0
7FC0
0000
0000
0000
0000
0000
ENDCHAR

STARTCHAR E
ENCODING 69
SWIDTH 720 0
DWIDTH 14 0
BBX 14 20 0 -5
BITMAP
0000
0000
0000
0000
7FF8
7FF8
7800
7800
7FE0
7FE0
7800
7800
7800
7FF8
7FF8
0000
0000
0000
0000
0000
ENDCHAR

STARTCHAR F
ENCODING 70
SWIDTH 720 0
DWIDTH 14 0
BBX 14 20 0 -5
BITMAP
0000
0000
0000
0000
7FF8
7FF8
7800
7800
7800
7FE0
7FE0
7800
7800
7800
7800
0000
0000
0000
0000
0000
ENDCHAR

STARTCHAR G
ENCODING 71
SWIDTH 720 0
DWIDTH 14 0
BBX 14 20 0 -5
BITMAP
0000
0000
0000
0000
0FD8
3FF8
3C38
7838
7800
79F8
79F8
7878
3C78
3FF8
0FE0
0000
0000
0000
0000
0000
ENDCHAR

STARTCHAR H
ENCODING 72
SWIDTH 720 0
DWIDTH 14 0
BBX 14 20 0 -5
BITMAP
0000
0000
0000
0000
7878
7878
7878
7878
7FF8
7FF8
7878
7878
7878
7878
7878
0000
0000
0000
0000
0000
ENDCHAR

STARTCHAR I
ENCODING 73
SWIDTH 720 0
DWIDTH 14 0
BBX 14 20 0 -5
BITMAP
0000
0000
0000
0000
7FF8
7FF8
0780
0780
0780
0780
0780
0780
0780
7FF8
7FF8
0000
0000
0000
0000
0000
ENDCHAR

STARTCHAR J
ENCODING 74
SWIDTH 720 0
DWIDTH 14 0
BBX 14 20 0 -5
BITMAP
0000
0000
0000
0000
1FF8
1FF8
01E0
01E0
01E0
01E0
71E0
71E0
79E0
7FC0
1F80
0000
0000
0000
0000
0000
ENDCHAR

STARTCHAR K
ENCODING 75
SWIDTH 720 0
DWIDTH 14 0
BBX 14 20 0 -5
BITMAP
0000
0000
0000
0000
7878
78F8
79E0
7BC0
7F80
7F80
7FE0
79E0
78F0
7878
7878
0000
0000
0000
0000
0000
ENDCHAR

STARTCHAR L
ENCODING 76
SWIDTH 720 0
DWIDTH 14 0
BBX 14 20 0 -5
BITMAP
0000
0000
0000
0000
7F80
7F80
1E00
1E00
1E00
1E00
1E00
1E18
1E18
7FF8
7FF8
0000
0000
0000
0000
0000
ENDCHAR

STARTCHAR M
ENCODING 77
SWIDTH 720 0
DWIDTH 14 0
BBX 14 20 0 -5
BITMAP
0000
0000
0000
0000
7038
7878
7878
7CF8
7CF8
77B8
7B78
7B78
7878
7878
7878
0000
0000
0000
0000
0000
ENDCHAR

STARTCHAR N
ENCODING 78
SWIDTH 720 0
DWIDTH 14 0
BBX 14 20 0 -5
BITMAP
0000
0000
0000
0000
7878
7C78
7C78
7E78
7E78
7B78
7BF8
79F8
79F8
78F8
7878
0000
0000
0000
0000
0000
ENDCHAR

STARTCHAR O
ENCODING 79
SWIDTH 720 0
DWIDTH 14 0
BBX 14 20 0 -5
BITMAP
0000
0000
0000
0000
0FC0
3FF0
3CF0
7878
7878
7878
7878
7878
3CF0
3FF0
0FC0
0000
0000
0000
0000
0000
ENDCHAR

STARTCHAR P
ENCODING 80
SWIDTH 720 0
DWIDTH 14 0
BBX 14 20 0 -5
BITMAP
0000
0000
0000
0000
7FE0
7FF8
7878
7878
7878
7FF8
7FE0
7800
7800
7800
7800
0000
0000
0000
0000
0000
ENDCHAR

STARTCHAR Q
ENCODING 81
SWIDTH 720 0
DWIDTH 14 0
BBX 14 20 0 -5
BITMAP
0000
0000
0000
0000
0FC0
3FF0
3CF0
7878
7878
7878
7878
7878
3CF0
3FF0
0FC0
1C00
3F18
77F8
61F0
0000
ENDCHAR

STARTCHAR R
ENCODING 82
SWIDTH 720 0
DWIDTH 14 0
BBX 14 20 0 -5
BITMAP
0000
0000
0000
0000
7FE0
7FF0
7878
7878
7878
7FF0
7FC0
79E0
78E0
78F8
7878
0000
0000
0000
0000
0000
ENDCHAR

STARTCHAR S
ENCODING 83
SWIDTH 720 0
DWIDTH 14 0
BBX 14 20 0 -5
BITMAP
0000
0000
0000
0000
1FB8
7FF8
7878
7800
7F00
3FE0
07F8
0078
7078
7FF8
6FE0
0000
0000
0000
0000
0000
ENDCHAR

STARTCHAR T
ENCODING 84
SWIDTH 720 0
DWIDTH 14 0
BBX 14 20 0 -5
BITMAP
0000
0000
0000
0000
7FF8
7FF8
6798
6798
0780
0780
0780
0780
0780
0FC0
0FC0
0000
0000
0000
0000
0000
ENDCHAR

STARTCHAR U
ENCODING 85
SWIDTH 720 0
DWIDTH 14 0
BBX 14 20 0 -5
BITMAP
0000
0000
0000
0000
7878
7878
7878
7878
7878
7878
7878
7878
7CF8
3FF0
1FE0
0000
0000
0000
0000
0000
ENDCHAR

STARTCHAR V
ENCODING 86
SWIDTH 720 0
DWIDTH 14 0
BBX 14 20 0 -5
BITMAP
0000
0000
0000
0000
7878
7878
7878
7878
7878
7878
3870
3CF0
1FE0
0FC0
0780
0000
0000
0000
0000
0000
ENDCHAR

STARTCHAR W
ENCODING 87
SWIDTH 720 0
DWIDTH 14 0
BBX 14 20 0 -5
BITMAP
0000
0000
0000
0000
7878
7878
7878
7878
7B78
7B78
7FF8
7CF8
3870
3870
3030
0000
0000
0000
0000
0000
ENDCHAR

STARTCHAR X
ENCODING 88
SWIDTH 720 0
DWIDTH 14 0
BBX 14 20 0 -5
BITMAP
0000
0000
0000
0000
7878
7878
3CF0
1FE0
0FC0
0780
0FC0
1FE0
3CF0
7878
7878
0000
0000
0000
0000
0000
ENDCHAR

STARTCHAR Y
ENCODING 89
SWIDTH 720 0
DWIDTH 14 0
BBX 14 20 0 -5
BITMAP
0000
0000
0000
0000
7878
7878
3870
1CE0
1CE0
0FC0
0780
0780
0780
0780
0780
0000
0000
0000
0000
0000
ENDCHAR

STARTCHAR Z
ENCODING 90
SWIDTH 720 0
DWIDTH 14 0
BBX 14 20 0 -5
BITMAP
0000
0000
0000
0000
7FF8
7FF8
60F0
61E0
03C0
0780
0F00
1E18
3C18
7FF8
7FF8
0000
0000
0000
0000
0000
ENDCHAR

STARTCHAR bracketleft
ENCODING 91
SWIDTH 720 0
DWIDTH 14 0
BBX 14 20 0 -5
BITMAP
0000
0000
0FC0
0FC0
0F00
0F00
0F00
0F00
0F00
0F00
0F00
0F00
0F00
0F00
0F00
0F00
0FC0
0FC0
0000
0000
ENDCHAR

STARTCHAR backslash
ENCODING 92
SWIDTH 720 0
DWIDTH 14 0
BBX 14 20 0 -5
BITMAP
0000
0000
0000
7800
3800
3C00
1E00
1E00
0F00
0780
0780
03C0
03C0
01E0
00F0
0000
0000
0000
0000
0000
ENDCHAR

STARTCHAR bracketright
ENCODING 93
SWIDTH 720 0
DWIDTH 14 0
BBX 14 20 0 -5
BITMAP
0000
0000
0FC0
0FC0
03C0
03C0
03C0
03C0
03C0
03C0
03C0
03C0
03C0
03C0
03C0
03C0
0FC0
0FC0
0000
0000
ENDCHAR

STARTCHAR asciicircum
ENCODING 94
SWIDTH 720 0
DWIDTH 14 0
BBX 14 20 0 -5
BITMAP
0000
0000
0780
1FE0
7878
6018
0000
0000
0000
0000
0000
0000
0000
0000
0000
0000
0000
0000
0000
0000
ENDCHAR

STARTCHAR ldblank
ENCODING 95
SWIDTH 720 0
DWIDTH 14 0
BBX 14 20 0 -5
BITMAP
0000
0000
0000
0000
0000
0000
0000
0000
0000
0000
0000
0000
0000
0000
0000
0000
0000
0000
0000
0000
ENDCHAR

STARTCHAR diamond
ENCODING 96
SWIDTH 720 0
DWIDTH 14 0
BBX 14 20 0 -5
BITMAP
0000
0000
0000
0300
0780
0FC0
1FE0
3FF0
7FF8
7FF8
3FF0
1FE0
0FC0
0780
0300
0000
0000
0000
0000
0000
ENDCHAR

STARTCHAR checkerboard
ENCODING 97
SWIDTH 720 0
DWIDTH 14 0
BBX 14 20 0 -5
BITMAP
3264
CD98
3264
CD98
3264
CD98
3264
CD98
3264
CD98
3264
CD98
3264
CD98
3264
CD98
3264
CD98
3264
CD98
ENDCHAR

STARTCHAR HT
ENCODING 98
SWIDTH 720 0
DWIDTH 14 0
BBX 14 20 0 -5
BITMAP
0000
0000
0000
EE00
EE00
FE00
EE00
EE00
EE00
0000
03F8
00E0
00E0
00E0
00E0
00E0
0000
0000
0000
0000
ENDCHAR

STARTCHAR FF
ENCODING 99
SWIDTH 720 0
DWIDTH 14 0
BBX 14 20 0 -5
BITMAP
0000
0000
0000
7E00
7000
7E00
7000
7000
7000
0000
01F8
01C0
01F8
01C0
01C0
01C0
0000
0000
0000
0000
ENDCHAR

STARTCHAR CR
ENCODING 100
SWIDTH 720 0
DWIDTH 14 0
BBX 14 20 0 -5
BITMAP
0000
0000
0000
3C00
E300
E000
E000
E300
3C00
0000
03F0
03B8
03B0
03E0
03B8
03B8
0000
0000
0000
0000
ENDCHAR

STARTCHAR LF
ENCODING 101
SWIDTH 720 0
DWIDTH 14 0
BBX 14 20 0 -5
BITMAP
0000
0000
0000
7000
7000
7000
7000
7000
7E00
0000
01F8
01C0
01F8
01C0
01C0
01C0
0000
0000
0000
0000
ENDCHAR

STARTCHAR degree
ENCODING 102
SWIDTH 720 0
DWIDTH 14 0
BBX 14 20 0 -5
BITMAP
0000
0000
0000
0000
0FC0
3FF0
3870
3870
3FF0
0FC0
0000
0000
0000
0000
0000
0000
0000
0000
0000
0000
ENDCHAR

STARTCHAR plusminus
ENCODING 103
SWIDTH 720 0
DWIDTH 14 0
BBX 14 20 0 -5
BITMAP
0000
0000
0000
0000
0780
0780
0780
7FF8
7FF8
0780
0780
0780
0000
7FF8
7FF8
0000
0000
0000
0000
0000
ENDCHAR

STARTCHAR NL
ENCODING 104
SWIDTH 720 0
DWIDTH 14 0
BBX 14 20 0 -5
BITMAP
0000
0000
0000
E700
F700
F700
EF00
EF00
E700
0000
00E0
00E0
00E0
00E0
00E0
00FC
0000
0000
0000
0000
ENDCHAR

STARTCHAR VT
ENCODING 105
SWIDTH 720 0
DWIDTH 14 0
BBX 14 20 0 -5
BITMAP
0000
0000
0000
EE00
EE00
EE00
EE00
7C00
3800
0000
03F8
00E0
00E0
00E0
00E0
00E0
0000
0000
0000
0000
ENDCHAR

STARTCHAR ldcornsqlr
ENCODING 106
SWIDTH 720 0
DWIDTH 14 0
BBX 14 20 0 -5
BITMAP
0780
0780
0780
0780
0780
0780
0780
0780
0780
FF80
FF80
0000
0000
0000
0000
0000
0000
0000
0000
0000
ENDCHAR

STARTCHAR ldcornsqur
ENCODING 107
SWIDTH 720 0
DWIDTH 14 0
BBX 14 20 0 -5
BITMAP
0000
0000
0000
0000
0000
0000
0000
0000
0000
FF80
FF80
0780
0780
0780
0780
0780
0780
0780
0780
0780
ENDCHAR

STARTCHAR ldcornsqul
ENCODING 108
SWIDTH 720 0
DWIDTH 14 0
BBX 14 20 0 -5
BITMAP
0000
0000
0000
0000
0000
0000
0000
0000
0000
07FC
07FC
0780
0780
0780
0780
0780
0780
0780
0780
0780
ENDCHAR

STARTCHAR ldcornsqll
ENCODING 109
SWIDTH 720 0
DWIDTH 14 0
BBX 14 20 0 -5
BITMAP
0780
0780
0780
0780
0780
0780
0780
0780
0780
07FC
07FC
0000
0000
0000
0000
0000
0000
0000
0000
0000
ENDCHAR

STARTCHAR ldcross
ENCODING 110
SWIDTH 720 0
DWIDTH 14 0
BBX 14 20 0 -5
BITMAP
0780
0780
0780
0780
0780
0780
0780
0780
0780
FFFC
FFFC
0780
0780
0780
0780
0780
0780
0780
0780
0780
ENDCHAR

STARTCHAR ldscan1
ENCODING 111
SWIDTH 720 0
DWIDTH 14 0
BBX 14 20 0 -5
BITMAP
0000
FFFC
FFFC
0000
0000
0000
0000
0000
0000
0000
0000
0000
0000
0000
0000
0000
0000
0000
0000
0000
ENDCHAR

STARTCHAR ldscan3
ENCODING 112
SWIDTH 720 0
DWIDTH 14 0
BBX 14 20 0 -5
BITMAP
0000
0000
0000
0000
0000
FFFC
FFFC
0000
0000
0000
0000
0000
0000
0000
0000
0000
0000
0000
0000
0000
ENDCHAR

STARTCHAR ldhorizontal
ENCODING 113
SWIDTH 720 0
DWIDTH 14 0
BBX 14 20 0 -5
BITMAP
0000
0000
0000
0000
0000
0000
0000
0000
0000
FFFC
FFFC
0000
0000
0000
0000
0000
0000
0000
0000
0000
ENDCHAR

STARTCHAR ldscan7
ENCODING 114
SWIDTH 720 0
DWIDTH 14 0
BBX 14 20 0 -5
BITMAP
0000
0000
0000
0000
0000
0000
0000
0000
0000
0000
0000
0000
0000
FFFC
FFFC
0000
0000
0000
0000
0000
ENDCHAR

STARTCHAR ldscan9
ENCODING 115
SWIDTH 720 0
DWIDTH 14 0
BBX 14 20 0 -5
BITMAP
0000
0000
0000
0000
0000
0000
0000
0000
0000
0000
0000
0000
0000
0000
0000
0000
0000
FFFC
FFFC
0000
ENDCHAR

STARTCHAR ldteelft
ENCODING 116
SWIDTH 720 0
DWIDTH 14 0
BBX 14 20 0 -5
BITMAP
0780
0780
0780
0780
0780
0780
0780
0780
0780
07FC
07FC
0780
0780
0780
0780
0780
0780
0780
0780
0780
ENDCHAR

STARTCHAR ldteert
ENCODING 117
SWIDTH 720 0
DWIDTH 14 0
BBX 14 20 0 -5
BITMAP
0780
0780
0780
0780
0780
0780
0780
0780
0780
FF80
FF80
0780
0780
0780
0780
0780
0780
0780
0780
0780
ENDCHAR

STARTCHAR ldteebt
ENCODING 118
SWIDTH 720 0
DWIDTH 14 0
BBX 14 20 0 -5
BITMAP
0780
0780
0780
0780
0780
0780
0780
0780
0780
FFFC
FFFC
0000
0000
0000
0000
0000
0000
0000
0000
0000
ENDCHAR

STARTCHAR ldteetp
ENCODING 119
SWIDTH 720 0
DWIDTH 14 0
BBX 14 20 0 -5
BITMAP
0000
0000
0000
0000
0000
0000
0000
0000
0000
FFFC
FFFC
0780
0780
0780
0780
0780
0780
0780
0780
0780
ENDCHAR

STARTCHAR ldvertical
ENCODING 120
SWIDTH 720 0
DWIDTH 14 0
BBX 14 20 0 -5
BITMAP
0780
0780
0780
0780
0780
0780
0780
0780
0780
0780
0780
0780
0780
0780
0780
0780
0780
0780
0780
0780
ENDCHAR

STARTCHAR lessequal
ENCODING 121
SWIDTH 720 0
DWIDTH 14 0
BBX 14 20 0 -5
BITMAP
0000
0000
0000
0000
0000
0078
03F8
1FC0
7C00
1FC0
03F8
0078
0000
7FF8
7FF8
0000
0000
0000
0000
0000
ENDCHAR

STARTCHAR greaterequal
ENCODING 122
SWIDTH 720 0
DWIDTH 14 0
BBX 14 20 0 -5
BITMAP
0000
0000
0000
0000
0000
7800
7F00
0FE0
00F8
0FE0
7F00
7800
0000
7FF8
7FF8
0000
0000
0000
0000
0000
ENDCHAR

STARTCHAR pi
ENCODING 123
SWIDTH 720 0
DWIDTH 14 0
BBX 14 20 0 -5
BITMAP
0000
0000
0000
0000
0000
0000
7FF8
7FF8
3CF0
3CF0
3CF0
38E0
79E0
79E0
79E0
0000
0000
0000
0000
0000
ENDCHAR

STARTCHAR notequal
ENCODING 124
SWIDTH 720 0
DWIDTH 14 0
BBX 14 20 0 -5
BITMAP
0000
0000
0000
0000
0000
0060
00C0
7FF8
7FF8
0380
0700
7FF8
7FF8
0C00
1800
0000
0000
0000
0000
0000
ENDCHAR

STARTCHAR sterling
ENCODING 125
SWIDTH 720 0
DWIDTH 14 0
BBX 14 20 0 -5
BITMAP
0000
0000
0000
0000
07E0
1FF8
1E38
1E00
7FE0
7FE0
0F00
0F00
1E18
7FF8
71E0
0000
0000
0000
0000
0000
ENDCHAR

STARTCHAR periodcentered
ENCODING 126
SWIDTH 720 0
DWIDTH 14 0
BBX 14 20 0 -5
BITMAP
0000
0000
0000
0000
0000
0000
0000
0000
0000
0780
0FC0
0780
0000
0000
0000
0000
0000
0000
0000
0000
ENDCHAR

STARTCHAR Error
ENCODING 159
SWIDTH 720 0
DWIDTH 14 0
BBX 14 20 0 -5
BITMAP
1FE0
7FF8
FFFC
F83C
F83C
FC3C
FE00
7F00
3F80
0FC0
07C0
07C0
0000
0000
07C0
0FE0
0FE0
0FE0
07C0
0000
ENDCHAR

STARTCHAR space
ENCODING 160
SWIDTH 720 0
DWIDTH 14 0
BBX 14 20 0 -5
BITMAP
0000
0000
0000
0000
0000
0000
0000
0000
0000
0000
0000
0000
0000
0000
0000
0000
0000
0000
0000
0000
ENDCHAR

STARTCHAR ldradicalbt
ENCODING 161
SWIDTH 720 0
DWIDTH 14 0
BBX 14 20 0 -5
BITMAP
0780
0780
0780
0780
0780
0780
4780
E780
F780
FF80
BF80
1F80
0F80
0780
0000
0000
0000
0000
0000
0000
ENDCHAR

STARTCHAR ldradicaltp
ENCODING 162
SWIDTH 720 0
DWIDTH 14 0
BBX 14 20 0 -5
BITMAP
0000
0000
0000
0000
0000
0000
0000
0000
0000
07FC
07FC
0780
0780
0780
0780
0780
0780
0780
0780
0780
ENDCHAR

STARTCHAR ldhorizontal
ENCODING 163
SWIDTH 720 0
DWIDTH 14 0
BBX 14 20 0 -5
BITMAP
0000
0000
0000
0000
0000
0000
0000
0000
0000
FFFC
FFFC
0000
0000
0000
0000
0000
0000
0000
0000
0000
ENDCHAR

STARTCHAR ldintegraltp
ENCODING 164
SWIDTH 720 0
DWIDTH 14 0
BBX 14 20 0 -5
BITMAP
0000
0000
00F8
03F8
0380
0780
0780
0780
0780
0780
0780
0780
0780
0780
0780
0780
0780
0780
0780
0780
ENDCHAR

STARTCHAR ldintegralbt
ENCODING 165
SWIDTH 720 0
DWIDTH 14 0
BBX 14 20 0 -5
BITMAP
0780
0780
0780
0780
0780
0780
0780
0780
0780
0780
0780
0780
0780
0780
0780
0700
7F00
7C00
0000
0000
ENDCHAR

STARTCHAR ldvertical
ENCODING 166
SWIDTH 720 0
DWIDTH 14 0
BBX 14 20 0 -5
BITMAP
0780
0780
0780
0780
0780
0780
0780
0780
0780
0780
0780
0780
0780
0780
0780
0780
0780
0780
0780
0780
ENDCHAR

STARTCHAR ldbracketlfttp
ENCODING 167
SWIDTH 720 0
DWIDTH 14 0
BBX 14 20 0 -5
BITMAP
0000
0000
07F8
07F8
0780
0780
0780
0780
0780
0780
0780
0780
0780
0780
0780
0780
0780
0780
0780
0780
ENDCHAR

STARTCHAR ldbracketlftbt
ENCODING 168
SWIDTH 720 0
DWIDTH 14 0
BBX 14 20 0 -5
BITMAP
0780
0780
0780
0780
0780
0780
0780
0780
0780
0780
0780
0780
0780
0780
0780
0780
07F8
07F8
0000
0000
ENDCHAR

STARTCHAR ldbracketrttp
ENCODING 169
SWIDTH 720 0
DWIDTH 14 0
BBX 14 20 0 -5
BITMAP
0000
0000
7F80
7F80
0780
0780
0780
0780
0780
0780
0780
0780
0780
0780
0780
0780
0780
0780
0780
0780
ENDCHAR

STARTCHAR ldbracketrtbt
ENCODING 170
SWIDTH 720 0
DWIDTH 14 0
BBX 14 20 0 -5
BITMAP
0780
0780
0780
0780
0780
0780
0780
0780
0780
0780
0780
0780
0780
0780
0780
0780
7F80
7F80
0000
0000
ENDCHAR

STARTCHAR ldbracelfttp
ENCODING 171
SWIDTH 720 0
DWIDTH 14 0
BBX 14 20 0 -5
BITMAP
0000
0000
00F8
03F8
03C0
0780
0780
0780
0780
0780
0780
0780
0780
0780
0780
0780
0780
0780
0780
0780
ENDCHAR

STARTCHAR ldbracelftbt
ENCODING 172
SWIDTH 720 0
DWIDTH 14 0
BBX 14 20 0 -5
BITMAP
0780
0780
0780
0780
0780
0780
0780
0780
0780
0780
0780
0780
0780
0780
0780
03C0
03F8
00F8
0000
0000
ENDCHAR

STARTCHAR ldbracerttp
ENCODING 173
SWIDTH 720 0
DWIDTH 14 0
BBX 14 20 0 -5
BITMAP
0000
0000
7C00
7F00
0F00
0780
0780
0780
0780
0780
0780
0780
0780
0780
0780
0780
0780
0780
0780
0780
ENDCHAR

STARTCHAR ldbracertbt
ENCODING 174
SWIDTH 720 0
DWIDTH 14 0
BBX 14 20 0 -5
BITMAP
0780
0780
0780
0780
0780
0780
0780
0780
0780
0780
0780
0780
0780
0780
0780
0F00
7F00
7C00
0000
0000
ENDCHAR

STARTCHAR ldbracelftmid
ENCODING 175
SWIDTH 720 0
DWIDTH 14 0
BBX 14 20 0 -5
BITMAP
0780
0780
0780
0780
0780
0780
0780
0780
0700
1E00
7E00
1E00
0700
0780
0780
0780
0780
0780
0780
0780
ENDCHAR

STARTCHAR ldbracertmid
ENCODING 176
SWIDTH 720 0
DWIDTH 14 0
BBX 14 20 0 -5
BITMAP
0780
0780
0780
0780
0780
0780
0780
0780
0380
01E0
01F8
01E0
0380
0780
0780
0780
0780
0780
0780
0780
ENDCHAR

STARTCHAR ldsigmalfttp
ENCODING 177
SWIDTH 720 0
DWIDTH 14 0
BBX 14 20 0 -5
BITMAP
0000
0000
0000
0000
0000
0000
0000
0000
0000
07FC
07FC
0380
01C0
01E0
00E0
0070
0038
003C
001C
000C
ENDCHAR

STARTCHAR ldsigmalftbt
ENCODING 178
SWIDTH 720 0
DWIDTH 14 0
BBX 14 20 0 -5
BITMAP
000C
001C
001C
0038
0070
0060
00E0
01C0
0380
03FC
03FC
0000
0000
0000
0000
0000
0000
0000
0000
0000
ENDCHAR

STARTCHAR ldbackslash
ENCODING 179
SWIDTH 720 0
DWIDTH 14 0
BBX 14 20 0 -5
BITMAP
C000
E000
E000
7000
7000
3800
1C00
1C00
0E00
0700
0380
0380
01C0
00E0
00E0
0070
0038
003C
001C
000C
ENDCHAR

STARTCHAR ldslash
ENCODING 180
SWIDTH 720 0
DWIDTH 14 0
BBX 14 20 0 -5
BITMAP
000C
001C
001C
0038
0078
0070
00E0
01C0
01C0
0380
0700
0700
0E00
1C00
1C00
3800
7000
F000
E000
C000
ENDCHAR

STARTCHAR ldsigmarttp
ENCODING 181
SWIDTH 720 0
DWIDTH 14 0
BBX 14 20 0 -5
BITMAP
0000
0000
0000
0000
0000
0000
0000
0000
0000
FFFC
FFFC
001C
001C
0000
0000
0000
0000
0000
0000
0000
ENDCHAR

STARTCHAR ldsigmartbt
ENCODING 182
SWIDTH 720 0
DWIDTH 14 0
BBX 14 20 0 -5
BITMAP
0000
0000
0000
0000
0000
0000
0000
001C
001C
FFFC
FFFC
0000
0000
0000
0000
0000
0000
0000
0000
0000
ENDCHAR

STARTCHAR ldsigmamid
ENCODING 183
SWIDTH 720 0
DWIDTH 14 0
BBX 14 20 0 -5
BITMAP
8000
C000
E000
7000
7000
3800
1C00
0E00
0E00
0700
0780
0700
0E00
1C00
1C00
3800
7000
7000
E000
C000
ENDCHAR

STARTCHAR lessequal
ENCODING 188
SWIDTH 720 0
DWIDTH 14 0
BBX 14 20 0 -5
BITMAP
0000
0000
0000
0000
0000
0078
03F8
1FC0
7C00
1FC0
03F8
0078
0000
7FF8
7FF8
0000
0000
0000
0000
0000
ENDCHAR

STARTCHAR notequal
ENCODING 189
SWIDTH 720 0
DWIDTH 14 0
BBX 14 20 0 -5
BITMAP
0000
0000
0000
0000
0000
0060
00C0
7FF8
7FF8
0380
0700
7FF8
7FF8
0C00
1800
0000
0000
0000
0000
0000
ENDCHAR

STARTCHAR greaterequal
ENCODING 190
SWIDTH 720 0
DWIDTH 14 0
BBX 14 20 0 -5
BITMAP
0000
0000
0000
0000
0000
7800
7F00
0FE0
00F8
0FE0
7F00
7800
0000
7FF8
7FF8
0000
0000
0000
0000
0000
ENDCHAR

STARTCHAR integral
ENCODING 191
SWIDTH 720 0
DWIDTH 14 0
BBX 14 20 0 -5
BITMAP
0000
00F0
03F8
0398
0780
0780
0780
0780
0780
0780
0780
0780
0780
0780
0780
0780
6700
7F00
3C00
0000
ENDCHAR

STARTCHAR therefore
ENCODING 192
SWIDTH 720 0
DWIDTH 14 0
BBX 14 20 0 -5
BITMAP
0000
0000
0000
0000
0000
0000
0780
0FC0
0780
0000
0000
0000
7878
FCFC
7878
0000
0000
0000
0000
0000
ENDCHAR

STARTCHAR proportional
ENCODING 193
SWIDTH 720 0
DWIDTH 14 0
BBX 14 20 0 -5
BITMAP
0000
0000
0000
0000
0000
0000
1E78
3FF8
73C0
7380
7380
73C0
3FF8
1E78
0000
0000
0000
0000
0000
0000
ENDCHAR

STARTCHAR infinity
ENCODING 194
SWIDTH 720 0
DWIDTH 14 0
BBX 14 20 0 -5
BITMAP
0000
0000
0000
0000
0000
0000
3CF0
FFFC
E79C
E31C
E31C
E79C
FFFC
3CF0
0000
0000
0000
0000
0000
0000
ENDCHAR

STARTCHAR divide
ENCODING 195
SWIDTH 720 0
DWIDTH 14 0
BBX 14 20 0 -5
BITMAP
0000
0000
0000
0000
0000
0780
0780
0780
0000
7FF8
7FF8
0000
0780
0780
0780
0000
0000
0000
0000
0000
ENDCHAR

STARTCHAR Delta
ENCODING 196
SWIDTH 720 0
DWIDTH 14 0
BBX 14 20 0 -5
BITMAP
0000
0000
0000
0000
0780
0FC0
1FE0
3CF0
7878
7878
7878
7878
7878
7FF8
7FF8
0000
0000
0000
0000
0000
ENDCHAR

STARTCHAR gradient
ENCODING 197
SWIDTH 720 0
DWIDTH 14 0
BBX 14 20 0 -5
BITMAP
0000
0000
0000
0000
7FF8
7FF8
7878
7878
7878
7878
7878
3CF0
1FE0
0FC0
0780
0000
0000
0000
0000
0000
ENDCHAR

STARTCHAR Phi
ENCODING 198
SWIDTH 720 0
DWIDTH 14 0
BBX 14 20 0 -5
BITMAP
0000
0000
0000
0000
1FE0
0780
1FE0
7FF8
6798
6798
7FF8
1FE0
0780
0780
1FE0
0000
0000
0000
0000
0000
ENDCHAR

STARTCHAR Gamma
ENCODING 199
SWIDTH 720 0
DWIDTH 14 0
BBX 14 20 0 -5
BITMAP
0000
0000
0000
0000
7FF8
7FF8
1E38
1E38
1E38
1E00
1E00
1E00
1E00
7FC0
7FC0
0000
0000
0000
0000
0000
ENDCHAR

STARTCHAR similar
ENCODING 200
SWIDTH 720 0
DWIDTH 14 0
BBX 14 20 0 -5
BITMAP
0000
0000
0000
0000
0000
0000
0000
0000
3C18
7F18
63F8
60F0
0000
0000
0000
0000
0000
0000
0000
0000
ENDCHAR

STARTCHAR approxequal
ENCODING 201
SWIDTH 720 0
DWIDTH 14 0
BBX 14 20 0 -5
BITMAP
0000
0000
0000
0000
0000
0000
0000
3C18
7F18
63F8
60F0
0000
7FF8
7FF8
0000
0000
0000
0000
0000
0000
ENDCHAR

STARTCHAR Theta
ENCODING 202
SWIDTH 720 0
DWIDTH 14 0
BBX 14 20 0 -5
BITMAP
0000
0000
0000
0000
0FC0
3FF0
3CF0
7878
7B78
7B78
7B78
7878
3CF0
3FF0
0FC0
0000
0000
0000
0000
0000
ENDCHAR

STARTCHAR multiply
ENCODING 203
SWIDTH 720 0
DWIDTH 14 0
BBX 14 20 0 -5
BITMAP
0000
0000
0000
0000
0000
0000
7038
7CF8
1FE0
0780
1FE0
7CF8
7038
0000
0000
0000
0000
0000
0000
0000
ENDCHAR

STARTCHAR Lambda
ENCODING 204
SWIDTH 720 0
DWIDTH 14 0
BBX 14 20 0 -5
BITMAP
0000
0000
0000
0000
0780
0FC0
1FE0
3CF0
7878
7878
7878
7878
7878
7878
7878
0000
0000
0000
0000
0000
ENDCHAR

STARTCHAR arrowdblboth
ENCODING 205
SWIDTH 720 0
DWIDTH 14 0
BBX 14 20 0 -5
BITMAP
0000
0000
0000
0000
0000
1860
3030
7FF8
FFFC
E01C
FFFC
7FF8
3030
1860
0000
0000
0000
0000
0000
0000
ENDCHAR

STARTCHAR arrowdblright
ENCODING 206
SWIDTH 720 0
DWIDTH 14 0
BBX 14 20 0 -5
BITMAP
0000
0000
0000
0000
0000
0300
00C0
FFF0
FFFC
003C
FFFC
FFF0
00C0
0300
0000
0000
0000
0000
0000
0000
ENDCHAR

STARTCHAR equivalence
ENCODING 207
SWIDTH 720 0
DWIDTH 14 0
BBX 14 20 0 -5
BITMAP
0000
0000
0000
0000
0000
0000
7FF8
7FF8
0000
7FF8
7FF8
0000
7FF8
7FF8
0000
0000
0000
0000
0000
0000
ENDCHAR

STARTCHAR Pi
ENCODING 208
SWIDTH 720 0
DWIDTH 14 0
BBX 14 20 0 -5
BITMAP
0000
0000
0000
0000
7FF8
7FF8
3CF0
3CF0
3CF0
3CF0
3CF0
3CF0
3CF0
3CF0
3CF0
0000
0000
0000
0000
0000
ENDCHAR

STARTCHAR Psi
ENCODING 209
SWIDTH 720 0
DWIDTH 14 0
BBX 14 20 0 -5
BITMAP
0000
0000
0000
0000
1FE0
0780
6798
6798
6798
6798
77B8
3FF0
0780
0780
1FE0
0000
0000
0000
0000
0000
ENDCHAR

STARTCHAR Sigma
ENCODING 211
SWIDTH 720 0
DWIDTH 14 0
BBX 14 20 0 -5
BITMAP
0000
0000
0000
0000
7FF8
7FF8
3C18
1E00
0F00
0780
0F00
1E00
3C18
7FF8
7FF8
0000
0000
0000
0000
0000
ENDCHAR

STARTCHAR radical
ENCODING 214
SWIDTH 720 0
DWIDTH 14 0
BBX 14 20 0 -5
BITMAP
0000
003C
003C
003C
0038
0078
0078
7870
7870
38F0
3CF0
1CE0
1EE0
0FE0
0FC0
07C0
07C0
0000
0000
0000
ENDCHAR

STARTCHAR Omega
ENCODING 215
SWIDTH 720 0
DWIDTH 14 0
BBX 14 20 0 -5
BITMAP
0000
0000
0000
0000
1FE0
3FF0
7878
7878
7878
7878
3870
1860
1CE0
7CF8
7CF8
0000
0000
0000
0000
0000
ENDCHAR

STARTCHAR Xi
ENCODING 216
SWIDTH 720 0
DWIDTH 14 0
BBX 14 20 0 -5
BITMAP
0000
0000
0000
0000
7FF8
7FF8
7038
0000
1860
1FE0
1FE0
0000
7038
7FF8
7FF8
0000
0000
0000
0000
0000
ENDCHAR

STARTCHAR Upsilon1
ENCODING 217
SWIDTH 720 0
DWIDTH 14 0
BBX 14 20 0 -5
BITMAP
0000
0000
0000
0000
7038
7878
3CF0
1CE0
0FC0
0FC0
0780
0780
0780
1FE0
1FE0
0000
0000
0000
0000
0000
ENDCHAR

STARTCHAR propersubset
ENCODING 218
SWIDTH 720 0
DWIDTH 14 0
BBX 14 20 0 -5
BITMAP
0000
0000
0000
0000
0FF8
3FF8
3C00
7800
7800
7800
7800
7800
3C00
3FF8
0FF8
0000
0000
0000
0000
0000
ENDCHAR

STARTCHAR propersuperset
ENCODING 219
SWIDTH 720 0
DWIDTH 14 0
BBX 14 20 0 -5
BITMAP
0000
0000
0000
0000
7FC0
7FF0
00F0
0078
0078
0078
0078
0078
00F0
7FF0
7FC0
0000
0000
0000
0000
0000
ENDCHAR

STARTCHAR intersection
ENCODING 220
SWIDTH 720 0
DWIDTH 14 0
BBX 14 20 0 -5
BITMAP
0000
0000
0000
0000
0FC0
3FF0
3CF0
7878
7878
7878
7878
7878
7878
7878
7878
0000
0000
0000
0000
0000
ENDCHAR

STARTCHAR union
ENCODING 221
SWIDTH 720 0
DWIDTH 14 0
BBX 14 20 0 -5
BITMAP
0000
0000
0000
0000
7878
7878
7878
7878
7878
7878
7878
7878
3CF0
3FF0
0FC0
0000
0000
0000
0000
0000
ENDCHAR

STARTCHAR logicaland
ENCODING 222
SWIDTH 720 0
DWIDTH 14 0
BBX 14 20 0 -5
BITMAP
0000
0000
0000
0000
0000
0000
0780
0FC0
0FC0
1CE0
1CE0
3870
3870
7038
F03C
0000
0000
0000
0000
0000
ENDCHAR

STARTCHAR logicalor
ENCODING 223
SWIDTH 720 0
DWIDTH 14 0
BBX 14 20 0 -5
BITMAP
0000
0000
0000
0000
0000
0000
F03C
7038
3870
3870
1CE0
1CE0
0FC0
0FC0
0780
0000
0000
0000
0000
0000
ENDCHAR

STARTCHAR logicalnot
ENCODING 224
SWIDTH 720 0
DWIDTH 14 0
BBX 14 20 0 -5
BITMAP
0000
0000
0000
0000
0000
0000
0000
7FF8
7FF8
0078
0078
0078
0000
0000
0000
0000
0000
0000
0000
0000
ENDCHAR

STARTCHAR alpha
ENCODING 225
SWIDTH 720 0
DWIDTH 14 0
BBX 14 20 0 -5
BITMAP
0000
0000
0000
0000
0000
0000
1F18
3FF8
79F0
79E0
79E0
79E0
79E0
3FF8
1E38
0000
0000
0000
0000
0000
ENDCHAR

STARTCHAR beta
ENCODING 226
SWIDTH 720 0
DWIDTH 14 0
BBX 14 20 0 -5
BITMAP
0000
0000
0000
07E0
1FF8
1C78
1C78
3C78
3FE0
3FF0
3878
7878
7878
7FF0
7FE0
F000
F000
F000
F000
0000
ENDCHAR

STARTCHAR chi
ENCODING 227
SWIDTH 720 0
DWIDTH 14 0
BBX 14 20 0 -5
BITMAP
0000
0000
0000
0000
0000
0000
1C18
1C38
1E78
0E70
07E0
07C0
0F80
1F80
39C0
71E0
F0E0
C0E0
0000
0000
ENDCHAR

STARTCHAR delta
ENCODING 228
SWIDTH 720 0
DWIDTH 14 0
BBX 14 20 0 -5
BITMAP
0000
0000
0000
07E0
1FE0
1E00
1E00
0780
1FE0
3DF0
7878
7878
7C78
3FF0
1FE0
0000
0000
0000
0000
0000
ENDCHAR

STARTCHAR epsilon
ENCODING 229
SWIDTH 720 0
DWIDTH 14 0
BBX 14 20 0 -5
BITMAP
0000
0000
0000
0000
0000
0000
0FF0
3FF0
7800
7FE0
7FE0
7800
7800
7FE0
1FE0
0000
0000
0000
0000
0000
ENDCHAR

STARTCHAR phi
ENCODING 230
SWIDTH 720 0
DWIDTH 14 0
BBX 14 20 0 -5
BITMAP
0000
0000
0000
00C0
00C0
00C0
0FE0
3FF8
3B38
7338
7338
7338
7338
3FF0
1FE0
0600
0600
0600
0600
0000
ENDCHAR

STARTCHAR gamma
ENCODING 231
SWIDTH 720 0
DWIDTH 14 0
BBX 14 20 0 -5
BITMAP
0000
0000
0000
0000
0000
0000
7838
7838
3878
3C70
1CE0
1EE0
0FC0
0FC0
0780
0700
0F00
1E00
0000
0000
ENDCHAR

STARTCHAR eta
ENCODING 232
SWIDTH 720 0
DWIDTH 14 0
BBX 14 20 0 -5
BITMAP
0000
0000
0000
0000
0000
0000
7BF0
7FF8
1E78
1E78
3C78
3C70
38F0
78F0
78E0
01E0
01E0
01E0
0000
0000
ENDCHAR

STARTCHAR iota
ENCODING 233
SWIDTH 720 0
DWIDTH 14 0
BBX 14 20 0 -5
BITMAP
0000
0000
0000
0000
0000
0000
1F80
1F80
0780
0F00
0F00
0F00
1E60
1FE0
0F80
0000
0000
0000
0000
0000
ENDCHAR

STARTCHAR theta
ENCODING 234
SWIDTH 720 0
DWIDTH 14 0
BBX 14 20 0 -5
BITMAP
0000
0000
0000
07E0
1FF0
3C70
3878
7878
7FF8
7FF8
7878
7870
38F0
3FE0
1F80
0000
0000
0000
0000
0000
ENDCHAR

STARTCHAR kappa
ENCODING 235
SWIDTH 720 0
DWIDTH 14 0
BBX 14 20 0 -5
BITMAP
0000
0000
0000
0000
0000
0000
3CF8
3DE0
3FC0
3F80
3F80
7BC0
79C0
79F0
78F0
0000
0000
0000
0000
0000
ENDCHAR

STARTCHAR lambda
ENCODING 236
SWIDTH 720 0
DWIDTH 14 0
BBX 14 20 0 -5
BITMAP
0000
0000
0000
1FE0
1FE0
01E0
01E0
01E0
03F0
07F0
0F70
0E70
1C78
3C78
7878
0000
0000
0000
0000
0000
ENDCHAR

STARTCHAR nu
ENCODING 238
SWIDTH 720 0
DWIDTH 14 0
BBX 14 20 0 -5
BITMAP
0000
0000
0000
0000
0000
0000
7E78
7E78
1E78
1E78
1EF0
1EE0
1FE0
1F80
1E00
0000
0000
0000
0000
0000
ENDCHAR

STARTCHAR partialdiff
ENCODING 239
SWIDTH 720 0
DWIDTH 14 0
BBX 14 20 0 -5
BITMAP
0000
0000
0000
7F00
7FC0
03E0
00F0
1FF0
3FF8
7878
7878
7878
7878
3FF0
1FE0
0000
0000
0000
0000
0000
ENDCHAR

STARTCHAR pi
ENCODING 240
SWIDTH 720 0
DWIDTH 14 0
BBX 14 20 0 -5
BITMAP
0000
0000
0000
0000
0000
0000
7FF8
7FF8
3CF0
3CF0
3CF0
38E0
79E0
79E0
79E0
0000
0000
0000
0000
0000
ENDCHAR

STARTCHAR psi
ENCODING 241
SWIDTH 720 0
DWIDTH 14 0
BBX 14 20 0 -5
BITMAP
0000
0000
0000
0180
0180
0180
39B8
39B8
39B8
3B38
7B38
7338
7330
3FF0
1FE0
0600
0600
0600
0600
0000
ENDCHAR

STARTCHAR rho
ENCODING 242
SWIDTH 720 0
DWIDTH 14 0
BBX 14 20 0 -5
BITMAP
0000
0000
0000
0000
0000
0000
0FE0
1FF0
3C78
3C78
3878
7878
7878
7FF0
7FE0
7800
7800
7800
0000
0000
ENDCHAR

STARTCHAR sigma
ENCODING 243
SWIDTH 720 0
DWIDTH 14 0
BBX 14 20 0 -5
BITMAP
0000
0000
0000
0000
0000
0000
1FF8
7FF8
78E0
F8F0
F0F0
F1F0
F1E0
7FE0
3F80
0000
0000
0000
0000
0000
ENDCHAR

STARTCHAR tau
ENCODING 244
SWIDTH 720 0
DWIDTH 14 0
BBX 14 20 0 -5
BITMAP
0000
0000
0000
0000
0000
0000
7FE0
7FE0
1E00
1E00
1E00
1E00
1E38
1FF8
07E0
0000
0000
0000
0000
0000
ENDCHAR

STARTCHAR florin
ENCODING 246
SWIDTH 720 0
DWIDTH 14 0
BBX 14 20 0 -5
BITMAP
0000
0000
0000
0000
01F8
03F8
0780
0700
3FE0
3FE0
0700
0700
0F00
0E00
0E00
1E00
FC00
F800
0000
0000
ENDCHAR

STARTCHAR omega
ENCODING 247
SWIDTH 720 0
DWIDTH 14 0
BBX 14 20 0 -5
BITMAP
0000
0000
0000
0000
0000
0000
701C
739C
739C
E39C
E39C
E39C
E798
FFF8
7CF0
0000
0000
0000
0000
0000
ENDCHAR

STARTCHAR xi
ENCODING 248
SWIDTH 720 0
DWIDTH 14 0
BBX 14 20 0 -5
BITMAP
0000
0000
0000
7FF8
7FF8
0780
1E00
1E00
1F80
3F80
3800
7800
7C00
7FC0
1FF0
0078
0078
01F8
01E0
0000
ENDCHAR

STARTCHAR upsilon
ENCODING 249
SWIDTH 720 0
DWIDTH 14 0
BBX 14 20 0 -5
BITMAP
0000
0000
0000
0000
0000
0000
7878
7878
7878
7878
7878
7870
78F0
3FE0
0F80
0000
0000
0000
0000
0000
ENDCHAR

STARTCHAR zeta
ENCODING 250
SWIDTH 720 0
DWIDTH 14 0
BBX 14 20 0 -5
BITMAP
0000
0000
0000
7FF8
7FF8
01E0
0780
0F00
3E00
3C00
7800
7800
7C00
3FF0
1FF8
0078
0078
0070
01E0
0000
ENDCHAR

STARTCHAR arrowleft
ENCODING 251
SWIDTH 720 0
DWIDTH 14 0
BBX 14 20 0 -5
BITMAP
0000
0000
0000
0000
0000
0000
0300
0F00
3C00
FFFC
FFFC
3C00
0F00
0300
0000
0000
0000
0000
0000
0000
ENDCHAR

STARTCHAR arrowup
ENCODING 252
SWIDTH 720 0
DWIDTH 14 0
BBX 14 20 0 -5
BITMAP
0000
0000
0100
0380
07C0
0FE0
1FF0
3BB8
3398
0380
0380
0380
0380
0380
0380
0380
0380
0380
0380
0000
ENDCHAR

STARTCHAR arrowright
ENCODING 253
SWIDTH 720 0
DWIDTH 14 0
BBX 14 20 0 -5
BITMAP
0000
0000
0000
0000
0000
0000
0300
03C0
00F0
FFFC
FFFC
00F0
03C0
0300
0000
0000
0000
0000
0000
0000
ENDCHAR

STARTCHAR arrowdown
ENCODING 254
SWIDTH 720 0
DWIDTH 14 0
BBX 14 20 0 -5
BITMAP
0000
0000
0380
0380
0380
0380
0380
0380
0380
0380
0380
0380
3398
3BB8
1FF0
0FE0
07C0
0380
0100
0000
ENDCHAR
ENDFONT
